<svg width="34" height="35" viewBox="0 0 34 35" fill="none" xmlns="http://www.w3.org/2000/svg">
<path d="M4.88465 35C3.77408 35 2.82369 34.6087 2.0335 33.826C1.24196 33.042 0.846191 32.1 0.846191 31V13C0.846191 12.3667 0.989556 11.7667 1.27629 11.2C1.56167 10.6333 1.95677 10.1667 2.46158 9.8L14.577 0.8C14.9472 0.533333 15.3342 0.333333 15.738 0.2C16.1419 0.0666665 16.5625 0 17 0C17.4375 0 17.8582 0.0666665 18.2621 0.2C18.6659 0.333333 19.0529 0.533333 19.4231 0.8L31.5385 9.8C32.0433 10.1667 32.4391 10.6333 32.7258 11.2C33.0112 11.7667 33.1539 12.3667 33.1539 13V31C33.1539 32.1 32.7588 33.042 31.9686 33.826C31.1771 34.6087 30.226 35 29.1154 35H21.0385V21H12.9616V35H4.88465Z" fill="#388E3C"/>
</svg>
