<svg width="28" height="35" viewBox="0 0 28 35" fill="none" xmlns="http://www.w3.org/2000/svg">
<path d="M14 22.1053C17.0859 22.1053 19.5583 19.6368 19.5583 16.5789L19.5769 5.52632C19.5769 2.46842 17.0859 0 14 0C10.9141 0 8.42308 2.46842 8.42308 5.52632V16.5789C8.42308 19.6368 10.9141 22.1053 14 22.1053ZM23.8526 16.5789C23.8526 22.1053 19.1308 25.9737 14 25.9737C8.86923 25.9737 4.14744 22.1053 4.14744 16.5789H0.987183C0.987183 22.8605 6.04359 28.0553 12.141 28.9579V35H15.859V28.9579C21.9564 28.0737 27.0128 22.8789 27.0128 16.5789H23.8526Z" fill="#388E3C"/>
</svg>
