<svg width="150" height="150" viewBox="0 0 150 150" fill="none" xmlns="http://www.w3.org/2000/svg">
<rect width="150" height="150" rx="75" fill="#388E3C"/>
<path d="M75 83.6842C80.9286 83.6842 85.6786 79.0295 85.6786 73.2632L85.7143 52.4211C85.7143 46.6547 80.9286 42 75 42C69.0714 42 64.2857 46.6547 64.2857 52.4211V73.2632C64.2857 79.0295 69.0714 83.6842 75 83.6842ZM93.9286 73.2632C93.9286 83.6842 84.8571 90.979 75 90.979C65.1429 90.979 56.0714 83.6842 56.0714 73.2632H50C50 85.1084 59.7143 94.9042 71.4286 96.6063V108H78.5714V96.6063C90.2857 94.9389 100 85.1432 100 73.2632H93.9286Z" fill="white"/>
</svg>
