<svg width="1138" height="292" viewBox="0 0 1138 292" fill="none" xmlns="http://www.w3.org/2000/svg">
<path d="M228.869 236.665C217.348 236.665 207.15 234.096 198.275 228.958C189.401 223.665 182.395 216.425 177.257 207.239C172.275 198.053 169.784 187.466 169.784 175.478C169.784 163.49 172.353 152.903 177.491 143.717C182.784 134.531 189.946 127.37 198.976 122.232C208.162 116.938 218.671 114.291 230.504 114.291C240.779 114.291 250.198 117.016 258.762 122.465C267.48 127.759 274.409 135.621 279.546 146.052C284.84 156.328 287.487 168.861 287.487 183.652H198.976L201.778 180.85C201.778 186.61 203.18 191.67 205.982 196.029C208.94 200.233 212.677 203.503 217.192 205.838C221.863 208.018 226.845 209.107 232.138 209.107C238.522 209.107 243.737 207.784 247.785 205.137C251.833 202.335 254.947 198.754 257.127 194.395L284.684 205.137C281.415 211.676 277.133 217.359 271.84 222.186C266.702 226.856 260.552 230.437 253.39 232.928C246.228 235.419 238.055 236.665 228.869 236.665ZM203.413 163.568L200.611 160.765H256.893L254.324 163.568C254.324 157.963 253.001 153.526 250.354 150.256C247.707 146.831 244.438 144.34 240.546 142.783C236.809 141.226 233.15 140.448 229.569 140.448C225.988 140.448 222.174 141.226 218.126 142.783C214.078 144.34 210.575 146.831 207.617 150.256C204.814 153.526 203.413 157.963 203.413 163.568ZM327.12 172.442C327.12 159.831 329.534 149.4 334.36 141.148C339.342 132.897 345.648 126.747 353.277 122.699C361.061 118.651 369.157 116.627 377.564 116.627V146.52C370.403 146.52 363.63 147.376 357.247 149.088C351.019 150.801 345.959 153.604 342.067 157.496C338.174 161.388 336.228 166.37 336.228 172.442H327.12ZM305.401 233.862V117.094H336.228V233.862H305.401ZM415.609 172.442C415.609 159.831 418.022 149.4 422.849 141.148C427.831 132.897 434.136 126.747 441.765 122.699C449.55 118.651 457.646 116.627 466.053 116.627V146.52C458.891 146.52 452.119 147.376 445.735 149.088C439.508 150.801 434.448 153.604 430.555 157.496C426.663 161.388 424.717 166.37 424.717 172.442H415.609ZM393.89 233.862V117.094H424.717V233.862H393.89ZM552.907 233.862L551.973 210.275V174.778C551.973 167.771 551.194 161.777 549.637 156.795C548.236 151.813 545.901 147.999 542.631 145.352C539.517 142.549 535.236 141.148 529.787 141.148C524.805 141.148 520.29 142.238 516.242 144.418C512.194 146.597 508.768 149.945 505.966 154.46L478.876 145.118C481.055 140.136 484.247 135.31 488.451 130.639C492.654 125.813 498.104 121.92 504.798 118.962C511.649 115.848 519.978 114.291 529.787 114.291C541.619 114.291 551.428 116.549 559.212 121.064C567.153 125.579 572.991 131.962 576.728 140.214C580.62 148.31 582.488 157.963 582.333 169.173L581.632 233.862H552.907ZM520.212 236.665C506.199 236.665 495.301 233.551 487.517 227.323C479.888 221.096 476.073 212.299 476.073 200.934C476.073 188.478 480.199 179.137 488.451 172.909C496.858 166.526 508.613 163.334 523.715 163.334H553.374V186.221H534.457C524.338 186.221 517.331 187.466 513.439 189.957C509.547 192.293 507.601 195.64 507.601 200C507.601 203.425 509.158 206.149 512.271 208.173C515.385 210.042 519.745 210.976 525.35 210.976C530.487 210.976 535.002 209.808 538.895 207.473C542.943 204.982 546.134 201.868 548.47 198.131C550.805 194.239 551.973 190.269 551.973 186.221H559.446C559.446 202.101 556.41 214.479 550.338 223.353C544.422 232.228 534.38 236.665 520.212 236.665Z" fill="#388E3C"/>
<path d="M611.339 233.862V70.3865H716.197V99.5786H643.333V138.813H704.053V168.005H643.333V233.862H611.339ZM804.917 233.862L803.983 210.275V174.778C803.983 167.771 803.204 161.777 801.648 156.795C800.246 151.813 797.911 147.999 794.641 145.352C791.528 142.549 787.246 141.148 781.797 141.148C776.815 141.148 772.3 142.238 768.252 144.418C764.204 146.597 760.779 149.945 757.976 154.46L730.886 145.118C733.066 140.136 736.257 135.31 740.461 130.639C744.665 125.813 750.114 121.92 756.808 118.962C763.659 115.848 771.988 114.291 781.797 114.291C793.629 114.291 803.438 116.549 811.223 121.064C819.163 125.579 825.001 131.962 828.738 140.214C832.63 148.31 834.498 157.963 834.343 169.173L833.642 233.862H804.917ZM772.222 236.665C758.21 236.665 747.311 233.551 739.527 227.323C731.898 221.096 728.083 212.299 728.083 200.934C728.083 188.478 732.209 179.137 740.461 172.909C748.868 166.526 760.623 163.334 775.725 163.334H805.384V186.221H786.468C776.348 186.221 769.342 187.466 765.449 189.957C761.557 192.293 759.611 195.64 759.611 200C759.611 203.425 761.168 206.149 764.282 208.173C767.395 210.042 771.755 210.976 777.36 210.976C782.498 210.976 787.013 209.808 790.905 207.473C794.953 204.982 798.144 201.868 800.48 198.131C802.815 194.239 803.983 190.269 803.983 186.221H811.456C811.456 202.101 808.42 214.479 802.348 223.353C796.432 232.228 786.39 236.665 772.222 236.665ZM880.631 172.442C880.631 159.831 883.044 149.4 887.87 141.148C892.852 132.897 899.158 126.747 906.787 122.699C914.571 118.651 922.667 116.627 931.075 116.627V146.52C923.913 146.52 917.14 147.376 910.757 149.088C904.529 150.801 899.469 153.604 895.577 157.496C891.685 161.388 889.738 166.37 889.738 172.442H880.631ZM858.912 233.862V117.094H889.738V233.862H858.912ZM947.4 233.862V117.094H976.359L977.76 132.274C981.341 126.358 985.934 121.92 991.539 118.962C997.144 115.848 1003.37 114.291 1010.22 114.291C1019.72 114.291 1027.66 116.315 1034.04 120.363C1040.58 124.411 1045.33 130.639 1048.29 139.046C1051.71 131.106 1056.54 125.034 1062.77 120.83C1069 116.471 1076.23 114.291 1084.49 114.291C1098.19 114.291 1108.62 118.651 1115.78 127.37C1122.94 135.933 1126.52 149.166 1126.52 167.071V233.862H1095.7V174.077C1095.7 166.137 1094.84 159.987 1093.13 155.628C1091.41 151.268 1089.08 148.154 1086.12 146.286C1083.16 144.262 1079.66 143.25 1075.61 143.25C1068.14 143.094 1062.38 145.508 1058.33 150.49C1054.28 155.472 1052.26 162.867 1052.26 172.676V233.862H1021.43V174.077C1021.43 166.137 1020.58 159.987 1018.86 155.628C1017.31 151.268 1014.97 148.154 1011.86 146.286C1008.9 144.262 1005.4 143.25 1001.35 143.25C993.874 143.094 988.114 145.508 984.066 150.49C980.173 155.472 978.227 162.867 978.227 172.676V233.862H947.4Z" fill="#795548"/>
<path d="M100.753 127.758V146.003H137.243V127.758H100.753ZM191.459 90.3919C200.569 94.697 211.445 90.8014 215.75 81.6909C220.055 72.5804 216.159 61.7049 207.049 57.3998L191.459 90.3919ZM137.243 127.758C137.243 123.958 135.961 106.316 155.395 95.2104L137.291 63.528C118.281 74.3909 108.822 89.4664 104.416 102.678C102.264 109.129 101.358 114.981 100.983 119.492C100.795 121.759 100.739 123.7 100.731 125.212C100.73 125.385 100.753 129.176 100.753 127.758H137.243ZM155.395 95.2104C166.397 88.9235 175.899 88.086 182.384 88.5713C185.697 88.8193 188.294 89.4228 189.932 89.9056C190.746 90.1455 191.304 90.3504 191.575 90.4555C191.71 90.5077 191.77 90.5343 191.753 90.5268C191.744 90.523 191.716 90.5106 191.667 90.4885C191.642 90.4774 191.613 90.464 191.578 90.4479C191.561 90.4399 191.542 90.4312 191.522 90.4219C191.512 90.4173 191.502 90.4124 191.491 90.4074C191.486 90.4049 191.478 90.4011 191.475 90.3998C191.467 90.3959 191.459 90.3919 199.254 73.8959C207.049 57.3998 207.04 57.3957 207.031 57.3917C207.028 57.3902 207.02 57.3861 207.014 57.3833C207.002 57.3776 206.989 57.3718 206.976 57.3658C206.95 57.3537 206.923 57.341 206.894 57.3277C206.837 57.301 206.773 57.2717 206.702 57.24C206.562 57.1765 206.397 57.1032 206.207 57.0214C205.828 56.8578 205.351 56.6599 204.78 56.4383C203.639 55.9955 202.117 55.4551 200.251 54.905C196.529 53.8076 191.372 52.6517 185.107 52.1829C172.434 51.2345 155.481 53.1336 137.291 63.528L155.395 95.2104Z" fill="#388E3C"/>
<line x1="118.975" y1="139.578" x2="118.975" y2="237.372" stroke="#388E3C" stroke-width="36.4902"/>
<path d="M190.612 36.7193C165.716 51.9938 150.947 98.1646 155.465 93.9652C159.984 89.7658 207.716 102.05 233.351 83.4688C258.985 64.8871 263.111 4.56434 253.831 22.2575C244.551 39.9507 215.508 21.4448 190.612 36.7193Z" fill="#388E3C"/>
<path d="M100.73 139.58H137.22C137.22 139.58 142.694 62.9489 69.7135 57.4753C56.6106 56.4926 56.9423 47.5227 40.5217 52.0019C0.383427 62.9489 -3.7817 97.1462 2.20646 86.6675C9.50501 73.8959 28.9295 97.7318 49.6437 93.9656C70.3578 90.1994 67.8887 77.545 86.1338 90.3166C104.379 106.737 100.73 139.58 100.73 139.58Z" fill="#388E3C"/>
</svg>
