<svg width="281" height="71" viewBox="0 0 281 71" fill="none" xmlns="http://www.w3.org/2000/svg">
<g filter="url(#filter0_d_18_139)">
<path d="M59.6491 57.3364C56.8716 57.3364 54.4131 56.7171 52.2737 55.4784C50.1342 54.2023 48.4452 52.4569 47.2066 50.2424C46.0055 48.0279 45.4049 45.4756 45.4049 42.5855C45.4049 39.6954 46.0242 37.143 47.2629 34.9285C48.539 32.714 50.2656 30.9874 52.4426 29.7488C54.6571 28.4727 57.1906 27.8346 60.0432 27.8346C62.5205 27.8346 64.7913 28.4914 66.8557 29.8051C68.9576 31.0813 70.6278 32.9768 71.8665 35.4915C73.1426 37.9688 73.7807 40.9903 73.7807 44.556H52.4426L53.1182 43.8804C53.1182 45.2692 53.456 46.489 54.1316 47.54C54.8448 48.5534 55.7456 49.3416 56.8341 49.9046C57.9601 50.4301 59.1612 50.6928 60.4373 50.6928C61.9762 50.6928 63.2336 50.3738 64.2095 49.7357C65.1854 49.0601 65.9361 48.1968 66.4616 47.1459L73.1051 49.7357C72.3169 51.3122 71.2847 52.6822 70.0085 53.8457C68.7699 54.9717 67.2873 55.835 65.5607 56.4356C63.8342 57.0361 61.8636 57.3364 59.6491 57.3364ZM53.5123 39.7141L52.8367 39.0385H66.4053L65.7859 39.7141C65.7859 38.3629 65.4669 37.2932 64.8288 36.505C64.1907 35.6792 63.4025 35.0787 62.4642 34.7033C61.5634 34.328 60.6813 34.1403 59.818 34.1403C58.9547 34.1403 58.0352 34.328 57.0593 34.7033C56.0834 35.0787 55.2389 35.6792 54.5257 36.505C53.8501 37.2932 53.5123 38.3629 53.5123 39.7141ZM83.3356 41.8536C83.3356 38.8133 83.9174 36.2985 85.081 34.3092C86.282 32.3199 87.8022 30.8373 89.6413 29.8614C91.5181 28.8855 93.4698 28.3976 95.4967 28.3976V35.6041C93.7701 35.6041 92.1374 35.8106 90.5985 36.2235C89.0971 36.6363 87.8772 37.3119 86.9389 38.2503C86.0005 39.1886 85.5314 40.3897 85.5314 41.8536H83.3356ZM78.0996 56.6608V28.5102H85.5314V56.6608H78.0996ZM104.668 41.8536C104.668 38.8133 105.25 36.2985 106.414 34.3092C107.615 32.3199 109.135 30.8373 110.974 29.8614C112.851 28.8855 114.803 28.3976 116.83 28.3976V35.6041C115.103 35.6041 113.47 35.8106 111.931 36.2235C110.43 36.6363 109.21 37.3119 108.272 38.2503C107.333 39.1886 106.864 40.3897 106.864 41.8536H104.668ZM99.4325 56.6608V28.5102H106.864V56.6608H99.4325ZM137.768 56.6608L137.543 50.9744V42.4166C137.543 40.7275 137.355 39.2825 136.98 38.0814C136.642 36.8803 136.079 35.9607 135.291 35.3226C134.54 34.647 133.508 34.3092 132.194 34.3092C130.993 34.3092 129.905 34.572 128.929 35.0974C127.953 35.6229 127.127 36.4299 126.452 37.5184L119.921 35.2663C120.446 34.0652 121.216 32.9017 122.229 31.7757C123.243 30.6121 124.556 29.6738 126.17 28.9606C127.822 28.2099 129.83 27.8346 132.194 27.8346C135.047 27.8346 137.412 28.3788 139.288 29.4673C141.203 30.5558 142.61 32.0947 143.511 34.084C144.449 36.0358 144.9 38.3629 144.862 41.0654L144.693 56.6608H137.768ZM129.886 57.3364C126.508 57.3364 123.881 56.5857 122.004 55.0843C120.165 53.583 119.245 51.4623 119.245 48.7223C119.245 45.7196 120.24 43.4675 122.229 41.9662C124.256 40.4273 127.09 39.6578 130.731 39.6578H137.881V45.1753H133.32C130.881 45.1753 129.192 45.4756 128.253 46.0762C127.315 46.6392 126.846 47.4461 126.846 48.4971C126.846 49.3229 127.221 49.9797 127.972 50.4676C128.723 50.9181 129.773 51.1433 131.125 51.1433C132.363 51.1433 133.452 50.8617 134.39 50.2987C135.366 49.6982 136.136 48.9475 136.699 48.0467C137.262 47.1083 137.543 46.1512 137.543 45.1753H139.345C139.345 49.0038 138.613 51.9878 137.149 54.1272C135.723 56.2667 133.302 57.3364 129.886 57.3364ZM151.855 56.6608V17.25H177.134V24.2876H159.568V33.7462H174.207V40.7838H159.568V56.6608H151.855ZM198.523 56.6608L198.298 50.9744V42.4166C198.298 40.7275 198.11 39.2825 197.735 38.0814C197.397 36.8803 196.834 35.9607 196.046 35.3226C195.295 34.647 194.263 34.3092 192.949 34.3092C191.748 34.3092 190.66 34.572 189.684 35.0974C188.708 35.6229 187.882 36.4299 187.206 37.5184L180.675 35.2663C181.201 34.0652 181.97 32.9017 182.984 31.7757C183.997 30.6121 185.311 29.6738 186.925 28.9606C188.576 28.2099 190.584 27.8346 192.949 27.8346C195.802 27.8346 198.166 28.3788 200.043 29.4673C201.957 30.5558 203.365 32.0947 204.266 34.084C205.204 36.0358 205.654 38.3629 205.617 41.0654L205.448 56.6608H198.523ZM190.641 57.3364C187.263 57.3364 184.635 56.5857 182.759 55.0843C180.919 53.583 180 51.4623 180 48.7223C180 45.7196 180.994 43.4675 182.984 41.9662C185.011 40.4273 187.844 39.6578 191.485 39.6578H198.636V45.1753H194.075C191.635 45.1753 189.946 45.4756 189.008 46.0762C188.07 46.6392 187.6 47.4461 187.6 48.4971C187.6 49.3229 187.976 49.9797 188.727 50.4676C189.477 50.9181 190.528 51.1433 191.879 51.1433C193.118 51.1433 194.206 50.8617 195.145 50.2987C196.121 49.6982 196.89 48.9475 197.453 48.0467C198.016 47.1083 198.298 46.1512 198.298 45.1753H200.099C200.099 49.0038 199.367 51.9878 197.904 54.1272C196.477 56.2667 194.056 57.3364 190.641 57.3364ZM216.776 41.8536C216.776 38.8133 217.358 36.2985 218.521 34.3092C219.722 32.3199 221.242 30.8373 223.082 29.8614C224.958 28.8855 226.91 28.3976 228.937 28.3976V35.6041C227.21 35.6041 225.578 35.8106 224.039 36.2235C222.537 36.6363 221.318 37.3119 220.379 38.2503C219.441 39.1886 218.972 40.3897 218.972 41.8536H216.776ZM211.54 56.6608V28.5102H218.972V56.6608H211.54ZM232.873 56.6608V28.5102H239.854L240.192 32.1698C241.055 30.7435 242.162 29.6738 243.514 28.9606C244.865 28.2099 246.366 27.8346 248.018 27.8346C250.307 27.8346 252.222 28.3225 253.76 29.2984C255.337 30.2743 256.482 31.7757 257.195 33.8025C258.021 31.8883 259.184 30.4244 260.686 29.411C262.187 28.3601 263.932 27.8346 265.922 27.8346C269.225 27.8346 271.739 28.8855 273.466 30.9874C275.192 33.0518 276.056 36.2422 276.056 40.5586V56.6608H268.624V42.2477C268.624 40.3334 268.418 38.8508 268.005 37.7999C267.592 36.7489 267.029 35.9983 266.316 35.5478C265.602 35.0599 264.758 34.8159 263.782 34.8159C261.98 34.7784 260.592 35.3602 259.616 36.5613C258.64 37.7624 258.152 39.5452 258.152 41.9099V56.6608H250.72V42.2477C250.72 40.3334 250.514 38.8508 250.101 37.7999C249.726 36.7489 249.163 35.9983 248.412 35.5478C247.699 35.0599 246.854 34.8159 245.878 34.8159C244.077 34.7784 242.688 35.3602 241.712 36.5613C240.774 37.7624 240.305 39.5452 240.305 41.9099V56.6608H232.873Z" fill="white"/>
<path d="M28.2895 30.6009V34.9995H37.0865V30.6009H28.2895ZM39.2804 18.9353L41.4627 22.7543L39.2804 18.9353ZM50.1568 21.5927C52.3532 22.6305 54.9751 21.6914 56.0129 19.495C57.0508 17.2986 56.1117 14.6768 53.9153 13.6389L50.1568 21.5927ZM37.0865 30.6009C37.0865 29.6847 36.7774 25.4316 41.4627 22.7543L37.0981 15.1163C32.5151 17.7351 30.2349 21.3695 29.1725 24.5546C28.6538 26.1097 28.4354 27.5206 28.345 28.6082C28.2996 29.1546 28.2862 29.6226 28.2841 29.9871C28.2839 30.0288 28.2895 30.9427 28.2895 30.6009H37.0865ZM41.4627 22.7543C44.115 21.2387 46.4058 21.0367 47.9691 21.1537C48.7679 21.2135 49.394 21.359 49.7887 21.4754C49.985 21.5333 50.1197 21.5826 50.1849 21.608C50.2174 21.6206 50.232 21.627 50.2278 21.6252C50.2257 21.6243 50.2188 21.6213 50.2071 21.6159C50.2012 21.6133 50.1941 21.61 50.1857 21.6062C50.1815 21.6042 50.177 21.6021 50.1722 21.5999C50.1698 21.5988 50.1673 21.5976 50.1648 21.5964C50.1635 21.5958 50.1615 21.5949 50.1609 21.5946C50.1589 21.5936 50.1568 21.5927 52.0361 17.6158C53.9153 13.6389 53.9132 13.6379 53.9111 13.637C53.9104 13.6366 53.9083 13.6356 53.9068 13.6349C53.9039 13.6336 53.9009 13.6322 53.8978 13.6307C53.8916 13.6278 53.8851 13.6247 53.8781 13.6215C53.8642 13.6151 53.8488 13.608 53.8318 13.6004C53.798 13.5851 53.7581 13.5674 53.7124 13.5477C53.621 13.5083 53.5059 13.4605 53.3683 13.4071C53.0934 13.3004 52.7264 13.1701 52.2766 13.0375C51.3793 12.7729 50.136 12.4942 48.6256 12.3812C45.5705 12.1526 41.4834 12.6104 37.0981 15.1163L41.4627 22.7543Z" fill="white"/>
<line x1="32.6826" y1="33.4504" x2="32.6826" y2="57.0265" stroke="white" stroke-width="8.79705"/>
<path d="M49.9528 8.65326C43.9509 12.3356 40.3903 23.4665 41.4796 22.4541C42.569 21.4417 54.0764 24.4033 60.2563 19.9236C66.4362 15.444 67.4309 0.901344 65.1937 5.16682C62.9565 9.43229 55.9548 4.97088 49.9528 8.65326Z" fill="white"/>
<path d="M28.2841 33.4508H37.0811C37.0811 33.4508 38.4006 14.9766 20.8065 13.6571C17.6477 13.4202 17.7277 11.2577 13.769 12.3375C4.09244 14.9766 3.08831 23.2209 4.53193 20.6947C6.29147 17.6158 10.9743 23.3621 15.9681 22.4542C20.9619 21.5462 20.3666 18.4955 24.7652 21.5744C29.1637 25.5331 28.2841 33.4508 28.2841 33.4508Z" fill="white"/>
</g>
<defs>
<filter id="filter0_d_18_139" x="0" y="4.39249" width="280.056" height="60.9439" filterUnits="userSpaceOnUse" color-interpolation-filters="sRGB">
<feFlood flood-opacity="0" result="BackgroundImageFix"/>
<feColorMatrix in="SourceAlpha" type="matrix" values="0 0 0 0 0 0 0 0 0 0 0 0 0 0 0 0 0 0 127 0" result="hardAlpha"/>
<feOffset dy="4"/>
<feGaussianBlur stdDeviation="2"/>
<feComposite in2="hardAlpha" operator="out"/>
<feColorMatrix type="matrix" values="0 0 0 0 0 0 0 0 0 0 0 0 0 0 0 0 0 0 0.1 0"/>
<feBlend mode="normal" in2="BackgroundImageFix" result="effect1_dropShadow_18_139"/>
<feBlend mode="normal" in="SourceGraphic" in2="effect1_dropShadow_18_139" result="shape"/>
</filter>
</defs>
</svg>
