<svg width="350" height="350" viewBox="0 0 350 350" fill="none" xmlns="http://www.w3.org/2000/svg">
<path fill-rule="evenodd" clip-rule="evenodd" d="M0 50C0 22.3858 22.3858 0 50 0H300C327.614 0 350 22.3858 350 50V300C350 327.614 327.614 350 300 350H50C22.3858 350 0 327.614 0 300V50ZM199.627 151.489C200.998 150.705 202.345 150.009 203.665 149.392C206.357 149.288 210.175 149.513 214.724 149.781C231.525 150.771 258.306 152.349 275.192 140.108C300.04 122.096 304.04 63.6238 295.045 80.7742C290.434 89.5643 280.792 89.1371 269.237 88.6252C258.248 88.1383 245.529 87.5749 233.765 94.7923C227.914 98.3819 222.64 103.732 218.07 109.719C207.528 110.373 195.132 113.319 182.078 120.778C174.26 125.246 168.109 130.448 163.291 135.936C153.556 125.075 138.828 116.58 116.574 114.911C111.441 114.526 108.435 112.876 105.624 111.334C101.481 109.06 97.7617 107.019 88.2781 109.606C49.3712 120.217 45.3338 153.365 51.1383 143.208C54.8391 136.732 61.7562 139.966 70.3862 144.001C78.2537 147.679 87.5448 152.023 97.1202 150.282C104.646 148.914 109.014 146.335 112.467 144.298C118.225 140.899 121.434 139.005 132.491 146.745C142.599 155.842 145.774 170.139 146.64 180.721C146.643 181.431 146.661 184.273 146.661 183.038V194.286C146.649 194.414 146.641 194.485 146.64 194.496M146.64 194.497L146.64 289.289H182.01V200.724H182.032V194.128C182.076 193.263 182.162 190.921 182.032 187.557V183.038C182.032 183.001 182.032 182.963 182.031 182.923C182.031 182.828 182.03 182.725 182.028 182.614L182.025 182.388C181.958 177.661 181.73 161.716 199.627 151.489" fill="white"/>
</svg>
